<svg width="20.000000" height="20.000000" viewBox="0 0 20 20" fill="none" xmlns="http://www.w3.org/2000/svg" xmlns:xlink="http://www.w3.org/1999/xlink">
	<defs/>
	<path id="Vector" d="M17.47 12.96C16.97 14.35 16.12 15.59 15 16.58C13.87 17.58 12.5 18.29 10.99 18.68C9.48 19.06 7.88 19.1 6.32 18.79C4.76 18.48 3.28 17.83 2 16.89C4.14 17.03 6.24 16.52 7.99 15.44C9.75 14.36 11.06 12.76 11.74 10.87C12.42 8.99 12.44 6.92 11.78 4.96C11.13 3.01 9.84 1.27 8.1 0C9.68 0.1 11.24 0.55 12.63 1.32C14.03 2.08 15.24 3.14 16.15 4.4C17.06 5.66 17.66 7.1 17.89 8.58C18.12 10.07 17.98 11.57 17.47 12.96Z" fill="#121212" fill-opacity="1.000000" fill-rule="nonzero"/>
</svg>
