<svg width="20.000000" height="20.000000" viewBox="0 0 20 20" fill="none" xmlns="http://www.w3.org/2000/svg" xmlns:xlink="http://www.w3.org/1999/xlink">
	<defs>
		<clipPath id="clip3343_7098">
			<rect id="error_icon " rx="0.000000" width="19.000000" height="19.000000" transform="translate(0.500000 0.500000)" fill="white" fill-opacity="0"/>
		</clipPath>
	</defs>
	<g clip-path="url(#clip3343_7098)">
		<path id="Vector" d="M10 3.33C6.35 3.33 3.33 6.35 3.33 10C3.33 13.64 6.35 16.66 10 16.66C13.64 16.66 16.66 13.64 16.66 10C16.66 6.35 13.64 3.33 10 3.33ZM10 14C9.73 14 9.55 13.82 9.55 13.55C9.55 13.28 9.73 13.11 10 13.11C10.26 13.11 10.44 13.28 10.44 13.55C10.44 13.82 10.26 14 10 14ZM10.44 11.6C10.44 11.86 10.26 12.13 10 12.13C9.73 12.13 9.55 11.86 9.55 11.6L9.55 6.53C9.55 6.26 9.73 6 10 6C10.26 6 10.44 6.26 10.44 6.53L10.44 11.6Z" fill="#AE2917" fill-opacity="1.000000" fill-rule="nonzero"/>
	</g>
</svg>
