<svg width="20.000000" height="20.000000" viewBox="0 0 20 20" fill="none" xmlns="http://www.w3.org/2000/svg" xmlns:xlink="http://www.w3.org/1999/xlink">
	<desc>
			Created with Pixso.
	</desc>
	<defs/>
	<path id="Vector" d="M10 15C11.32 15 12.59 14.47 13.53 13.53C14.47 12.59 15 11.32 15 10C15 8.67 14.47 7.4 13.53 6.46C12.59 5.52 11.32 5 10 5C8.67 5 7.4 5.52 6.46 6.46C5.52 7.4 5 8.67 5 10C5 11.32 5.52 12.59 6.46 13.53C7.4 14.47 8.67 15 10 15ZM10 0C10.16 0 10.32 0.06 10.44 0.18C10.55 0.3 10.62 0.45 10.62 0.62L10.62 3.12C10.62 3.29 10.55 3.44 10.44 3.56C10.32 3.68 10.16 3.75 10 3.75C9.83 3.75 9.67 3.68 9.55 3.56C9.44 3.44 9.37 3.29 9.37 3.12L9.37 0.62C9.37 0.45 9.44 0.3 9.55 0.18C9.67 0.06 9.83 0 10 0ZM10 16.25C10.16 16.25 10.32 16.31 10.44 16.43C10.55 16.55 10.62 16.7 10.62 16.87L10.62 19.37C10.62 19.54 10.55 19.69 10.44 19.81C10.32 19.93 10.16 20 10 20C9.83 20 9.67 19.93 9.55 19.81C9.44 19.69 9.37 19.54 9.37 19.37L9.37 16.87C9.37 16.7 9.44 16.55 9.55 16.43C9.67 16.31 9.83 16.25 10 16.25ZM20 10C20 10.16 19.93 10.32 19.81 10.44C19.69 10.55 19.54 10.62 19.37 10.62L16.87 10.62C16.7 10.62 16.55 10.55 16.43 10.44C16.31 10.32 16.25 10.16 16.25 10C16.25 9.83 16.31 9.67 16.43 9.55C16.55 9.44 16.7 9.37 16.87 9.37L19.37 9.37C19.54 9.37 19.69 9.44 19.81 9.55C19.93 9.67 20 9.83 20 10ZM3.75 10C3.75 10.16 3.68 10.32 3.56 10.44C3.44 10.55 3.29 10.62 3.12 10.62L0.62 10.62C0.45 10.62 0.3 10.55 0.18 10.44C0.06 10.32 0 10.16 0 10C0 9.83 0.06 9.67 0.18 9.55C0.3 9.44 0.45 9.37 0.62 9.37L3.12 9.37C3.29 9.37 3.44 9.44 3.56 9.55C3.68 9.67 3.75 9.83 3.75 10ZM17.07 2.92C17.18 3.04 17.25 3.2 17.25 3.37C17.25 3.53 17.18 3.69 17.07 3.81L15.3 5.58C15.24 5.63 15.17 5.68 15.1 5.71C15.02 5.74 14.94 5.76 14.86 5.76C14.69 5.76 14.53 5.69 14.41 5.58C14.36 5.52 14.31 5.45 14.28 5.37C14.25 5.3 14.23 5.22 14.23 5.13C14.23 4.97 14.3 4.81 14.41 4.69L16.18 2.92C16.3 2.81 16.46 2.74 16.62 2.74C16.79 2.74 16.95 2.81 17.07 2.92ZM5.58 14.41C5.69 14.53 5.76 14.69 5.76 14.86C5.76 15.02 5.69 15.18 5.58 15.3L3.81 17.07C3.69 17.18 3.53 17.24 3.37 17.24C3.2 17.24 3.05 17.17 2.93 17.06C2.82 16.94 2.75 16.79 2.75 16.62C2.75 16.46 2.81 16.3 2.92 16.18L4.69 14.41C4.81 14.3 4.97 14.23 5.13 14.23C5.3 14.23 5.46 14.3 5.58 14.41ZM17.07 17.07C16.95 17.18 16.79 17.25 16.62 17.25C16.46 17.25 16.3 17.18 16.18 17.07L14.41 15.3C14.3 15.18 14.24 15.02 14.24 14.86C14.24 14.7 14.31 14.54 14.42 14.42C14.54 14.31 14.7 14.24 14.86 14.24C15.02 14.24 15.18 14.3 15.3 14.41L17.07 16.18C17.18 16.3 17.25 16.46 17.25 16.62C17.25 16.79 17.18 16.95 17.07 17.07ZM5.58 5.58C5.46 5.69 5.3 5.76 5.13 5.76C4.97 5.76 4.81 5.69 4.69 5.58L2.92 3.81C2.86 3.75 2.82 3.68 2.78 3.6C2.75 3.53 2.73 3.45 2.73 3.36C2.73 3.28 2.75 3.2 2.78 3.12C2.81 3.04 2.86 2.97 2.92 2.92C2.97 2.86 3.04 2.81 3.12 2.78C3.2 2.75 3.28 2.73 3.36 2.73C3.45 2.73 3.53 2.75 3.6 2.78C3.68 2.82 3.75 2.86 3.81 2.92L5.58 4.69C5.63 4.75 5.68 4.82 5.71 4.89C5.74 4.97 5.76 5.05 5.76 5.13C5.76 5.22 5.74 5.3 5.71 5.37C5.68 5.45 5.63 5.52 5.58 5.58Z" fill="#121212" fill-opacity="1.000000" fill-rule="nonzero"/>
</svg>
