<svg width="73.000000" height="16.000000" viewBox="0 0 73 16" fill="none" xmlns="http://www.w3.org/2000/svg" xmlns:xlink="http://www.w3.org/1999/xlink">
	<desc>
			Created with Pixso.
	</desc>
	<defs/>
	<path id="logo" d="M23.33 0.62C23.53 0.82 23.68 1.04 23.79 1.3C23.89 1.55 23.95 1.82 23.95 2.09C23.95 2.1 23.95 2.11 23.95 2.12L23.95 4.26L23.05 4.26L23.05 3.03L17.32 3.03L17.32 4.26L16.44 4.26L16.44 2.12L16.44 2.12C16.44 1.84 16.5 1.56 16.61 1.3C16.72 1.04 16.87 0.82 17.07 0.62C17.26 0.43 17.48 0.27 17.73 0.16C18 0.05 18.28 -0.01 18.56 0L21.82 0C22.11 -0.01 22.39 0.05 22.65 0.16C22.91 0.27 23.14 0.43 23.33 0.62ZM55.47 0.62C55.66 0.82 55.82 1.05 55.93 1.3C56.04 1.56 56.1 1.84 56.1 2.13C56.1 2.41 56.04 2.7 55.93 2.96C55.82 3.21 55.66 3.44 55.47 3.64C55.27 3.83 55.04 3.99 54.79 4.1C54.52 4.21 54.24 4.27 53.95 4.26L50.69 4.26C50.41 4.27 50.12 4.21 49.86 4.1C49.6 3.99 49.37 3.83 49.18 3.64C48.98 3.44 48.83 3.21 48.72 2.96C48.61 2.7 48.55 2.42 48.55 2.13C48.55 1.84 48.61 1.56 48.72 1.3C48.83 1.05 48.98 0.82 49.18 0.62C49.37 0.43 49.6 0.27 49.86 0.16C50.12 0.05 50.41 -0.01 50.69 0L53.95 0C54.24 -0.01 54.52 0.05 54.79 0.16C55.04 0.27 55.27 0.43 55.47 0.62ZM0.89 0.89L0.89 1.68L7.54 1.68L7.54 2.58L0.89 2.58L0.89 4.26L0 4.26L0 0L7.54 0L7.54 0.89L0.89 0.89ZM32.08 0L32.08 4.28L31.18 4.28L31.18 1.61L28.35 3.8L25.53 1.61L25.53 4.28L24.63 4.28L24.63 0L28.35 2.66L32.08 0ZM48.66 0L46.57 4.28L44.75 1.2L42.93 4.28L40.85 0L41.84 0L43 2.52L44.38 0L45.13 0L46.5 2.52L47.66 0L48.66 0ZM69.08 2.13L73 4.26L71.14 4.26L68.03 2.57L65.87 2.57L65.87 4.26L64.98 4.26L64.98 0L65.87 0L65.87 1.69L68.03 1.69L71.14 0L73 0L69.08 2.13ZM33.81 1.52C33.78 1.57 33.76 1.62 33.73 1.68L40.3 1.68L40.3 2.58L33.73 2.58C33.76 2.63 33.78 2.69 33.81 2.74C33.88 2.86 33.98 2.97 34.09 3.07C34.19 3.16 34.32 3.24 34.45 3.29C34.59 3.34 34.74 3.37 34.89 3.37L40.3 3.37L40.3 4.26L34.89 4.26C34.6 4.27 34.32 4.21 34.05 4.1C33.8 3.99 33.57 3.83 33.37 3.64C33.18 3.44 33.02 3.21 32.91 2.96C32.8 2.7 32.74 2.42 32.74 2.13C32.74 1.84 32.8 1.56 32.91 1.3C33.02 1.05 33.18 0.82 33.37 0.62C33.57 0.43 33.8 0.27 34.05 0.16C34.32 0.05 34.6 -0.01 34.89 0L40.3 0L40.3 0.9L34.89 0.9C34.74 0.9 34.59 0.93 34.45 0.98C34.32 1.03 34.19 1.11 34.09 1.2C33.98 1.29 33.88 1.4 33.81 1.52ZM14.98 2.48C14.82 2.55 14.65 2.58 14.47 2.58L16.04 4.26L14.81 4.26L13.24 2.58L9.11 2.58L9.11 4.27L8.21 4.27L8.21 0L14.47 0C14.65 -0.01 14.82 0.03 14.98 0.1C15.13 0.16 15.27 0.26 15.39 0.37C15.5 0.49 15.6 0.63 15.66 0.78C15.73 0.93 15.77 1.1 15.77 1.27L15.77 1.28C15.76 1.63 15.63 1.96 15.39 2.2C15.27 2.32 15.13 2.41 14.98 2.48ZM63.54 2.48C63.38 2.55 63.21 2.58 63.03 2.58L64.59 4.26L63.37 4.26L61.8 2.58L57.67 2.58L57.67 4.27L56.77 4.27L56.77 0L63.03 0C63.21 -0.01 63.38 0.03 63.54 0.1C63.85 0.23 64.09 0.48 64.22 0.79C64.29 0.94 64.32 1.11 64.32 1.28L64.32 1.29L64.32 1.3C64.32 1.47 64.29 1.64 64.22 1.79C64.16 1.94 64.06 2.08 63.95 2.2C63.83 2.32 63.69 2.41 63.54 2.48ZM50.69 3.37L53.95 3.37C54.12 3.37 54.29 3.34 54.44 3.27C54.59 3.21 54.72 3.12 54.83 3.01C54.94 2.89 55.03 2.76 55.1 2.61C55.16 2.47 55.2 2.31 55.2 2.14L55.2 2.14L55.2 2.13C55.2 1.96 55.16 1.8 55.1 1.66C55.03 1.51 54.94 1.37 54.83 1.26C54.72 1.14 54.58 1.05 54.43 0.99C54.28 0.92 54.12 0.89 53.95 0.89L50.69 0.89C50.53 0.89 50.37 0.92 50.21 0.99C50.07 1.05 49.93 1.14 49.82 1.26C49.7 1.37 49.61 1.5 49.55 1.65C49.48 1.8 49.45 1.96 49.45 2.12L49.45 2.13L49.45 2.14C49.45 2.3 49.48 2.46 49.55 2.61C49.61 2.76 49.7 2.89 49.82 3C49.93 3.12 50.07 3.21 50.21 3.27C50.37 3.34 50.53 3.37 50.69 3.37ZM21.82 0.9L18.56 0.9C18.4 0.9 18.24 0.93 18.09 0.99C17.94 1.06 17.81 1.15 17.69 1.26C17.58 1.37 17.49 1.51 17.42 1.66C17.36 1.81 17.32 1.97 17.32 2.13L23.06 2.13L23.06 2.13C23.06 1.96 23.03 1.8 22.96 1.66C22.84 1.36 22.6 1.12 22.3 1C22.15 0.93 21.98 0.9 21.82 0.9ZM14.46 0.9L9.11 0.9L9.11 1.69L14.46 1.69C14.51 1.69 14.56 1.68 14.61 1.66C14.66 1.64 14.7 1.61 14.74 1.57C14.78 1.53 14.81 1.49 14.83 1.44C14.85 1.4 14.86 1.35 14.86 1.29C14.86 1.24 14.85 1.19 14.83 1.15C14.81 1.1 14.78 1.06 14.74 1.02C14.7 0.98 14.66 0.95 14.61 0.93C14.56 0.91 14.51 0.9 14.46 0.9ZM63.03 0.9L57.67 0.9L57.67 1.69L63.03 1.69C63.08 1.69 63.13 1.68 63.18 1.66C63.23 1.64 63.27 1.61 63.31 1.57C63.35 1.53 63.38 1.49 63.4 1.44C63.42 1.39 63.43 1.34 63.43 1.29C63.43 1.24 63.42 1.19 63.4 1.15C63.37 1.1 63.34 1.06 63.31 1.02C63.27 0.98 63.23 0.95 63.18 0.93C63.13 0.91 63.08 0.9 63.03 0.9ZM16.2 7.15L16.2 8.61L8.83 8.61L8.83 15.99L7.36 15.99L7.36 8.61L0 8.61L0 7.15L16.2 7.15ZM72.98 7.15L72.98 15.99L71.54 15.99L71.54 9.87L65.08 14.86L58.64 9.87L58.64 15.99L57.2 15.99L57.2 7.15L65.08 13.02L72.98 7.15ZM52.72 8.45C53.12 8.85 53.44 9.32 53.67 9.84C53.9 10.38 54.02 10.95 54.02 11.54L54.02 11.55L54.02 16L52.56 16L52.56 13.28L39.5 13.28L39.5 16L38.04 16L38.04 11.56C38.04 11.55 38.04 11.54 38.04 11.53C38.04 10.95 38.16 10.38 38.39 9.85C38.84 8.79 39.68 7.95 40.75 7.5C41.29 7.27 41.87 7.15 42.47 7.15L49.59 7.15C50.19 7.15 50.77 7.27 51.32 7.5C51.85 7.72 52.32 8.04 52.72 8.45ZM20.7 10.11C20.57 10.33 20.47 10.58 20.4 10.84L34.87 10.84L34.87 12.3L20.4 12.3C20.47 12.55 20.57 12.8 20.7 13.03C21.05 13.63 21.59 14.1 22.24 14.35C22.57 14.47 22.92 14.54 23.28 14.54L34.87 14.54L34.87 16L23.28 16C22.69 16 22.1 15.88 21.56 15.65C21.03 15.42 20.55 15.1 20.14 14.7C19.74 14.3 19.42 13.82 19.19 13.29C18.96 12.75 18.84 12.16 18.84 11.57C18.84 10.98 18.96 10.4 19.19 9.85C19.64 8.79 20.49 7.95 21.56 7.5C22.1 7.27 22.69 7.15 23.28 7.15L34.87 7.15L34.87 8.6L23.28 8.6C22.92 8.6 22.57 8.66 22.24 8.79C21.91 8.91 21.62 9.09 21.35 9.32C21.09 9.54 20.87 9.81 20.7 10.11ZM49.59 8.6L42.47 8.6C42.07 8.6 41.68 8.68 41.31 8.83C40.6 9.14 40.04 9.71 39.73 10.42C39.58 10.77 39.5 11.16 39.5 11.55L39.5 11.55L39.5 11.83L52.56 11.83L52.56 11.55L52.56 11.54C52.56 11.15 52.48 10.77 52.33 10.42C52.18 10.06 51.97 9.74 51.7 9.47C51.43 9.2 51.1 8.98 50.75 8.83C50.38 8.68 49.99 8.6 49.59 8.6Z" fill="#575757" fill-opacity="1.000000" fill-rule="evenodd"/>
</svg>
