<svg width="99.000000" height="28.000000" viewBox="0 0 99 28" fill="none" xmlns="http://www.w3.org/2000/svg" xmlns:xlink="http://www.w3.org/1999/xlink">
	<desc>
			Created with Pixso.
	</desc>
	<defs>
		<filter id="filter_5917_1953_dd" x="0.000000" y="0.000000" width="99.000000" height="28.000000" filterUnits="userSpaceOnUse" color-interpolation-filters="sRGB">
			<feFlood flood-opacity="0" result="BackgroundImageFix"/>
			<feColorMatrix in="SourceAlpha" type="matrix" values="0 0 0 0 0 0 0 0 0 0 0 0 0 0 0 0 0 0 127 0" result="hardAlpha"/>
			<feOffset dx="0" dy="4"/>
			<feGaussianBlur stdDeviation="1.33333"/>
			<feComposite in2="hardAlpha" operator="out" k2="-1" k3="1"/>
			<feColorMatrix type="matrix" values="0 0 0 0 0 0 0 0 0 0 0 0 0 0 0 0 0 0 0.25 0"/>
			<feBlend mode="normal" in2="BackgroundImageFix" result="effect_dropShadow_1"/>
			<feBlend mode="normal" in="SourceGraphic" in2="effect_dropShadow_1" result="shape"/>
		</filter>
	</defs>
	<g filter="url(#filter_5917_1953_dd)">
		<path id="logo" d="M33.09 0.78C33.33 1.02 33.52 1.31 33.66 1.62C33.79 1.94 33.85 2.28 33.85 2.62C33.85 2.63 33.85 2.64 33.85 2.66L33.85 5.33L32.73 5.33L32.73 3.79L25.59 3.79L25.59 5.33L24.49 5.33L24.49 2.66L24.49 2.65C24.49 2.3 24.57 1.95 24.71 1.62C24.84 1.31 25.03 1.02 25.27 0.78C25.51 0.54 25.8 0.34 26.11 0.2C26.43 0.06 26.79 -0.01 27.14 0L31.2 0C31.56 -0.01 31.91 0.06 32.24 0.2C32.56 0.34 32.85 0.53 33.09 0.78ZM5.12 1.11L5.12 2.1L13.4 2.1L13.4 3.23L5.12 3.23L5.12 5.33L4 5.33L4 0L13.4 0L13.4 1.11L5.12 1.11ZM43.99 0L43.99 5.35L42.87 5.35L42.87 2.01L39.34 4.75L35.82 2.01L35.82 5.35L34.71 5.35L34.71 0L39.34 3.33L43.99 0ZM64.66 0L62.06 5.35L59.79 1.5L57.51 5.35L54.92 0L56.16 0L57.6 3.15L59.33 0L60.26 0L61.97 3.15L63.42 0L64.66 0ZM90.11 2.66L95 5.33L92.68 5.33L88.81 3.22L86.12 3.22L86.12 5.33L85.01 5.33L85.01 0L86.12 0L86.12 2.11L88.81 2.11L92.68 0L95 0L90.11 2.66ZM73.15 0.78C73.39 1.02 73.58 1.31 73.72 1.62C73.86 1.95 73.93 2.31 73.93 2.66C73.93 3.02 73.86 3.37 73.72 3.7C73.58 4.02 73.39 4.3 73.15 4.55C72.91 4.79 72.62 4.99 72.3 5.12C71.97 5.26 71.62 5.33 71.26 5.33L67.2 5.33C66.84 5.33 66.48 5.26 66.15 5.12C65.84 4.99 65.55 4.79 65.3 4.55C65.06 4.31 64.87 4.02 64.73 3.7C64.59 3.37 64.52 3.02 64.52 2.66C64.52 2.31 64.59 1.95 64.73 1.62C64.87 1.31 65.06 1.02 65.3 0.78C65.55 0.53 65.84 0.34 66.15 0.2C66.48 0.06 66.84 -0.01 67.2 0L71.26 0C71.62 -0.01 71.97 0.06 72.3 0.2C72.62 0.34 72.9 0.53 73.15 0.78ZM46.15 1.9C46.11 1.97 46.08 2.03 46.05 2.1L54.24 2.1L54.24 3.23L46.05 3.23C46.08 3.29 46.11 3.36 46.15 3.42C46.24 3.58 46.36 3.72 46.49 3.84C46.63 3.96 46.78 4.05 46.95 4.11C47.12 4.18 47.31 4.21 47.49 4.21L54.24 4.21L54.24 5.33L47.49 5.33C47.13 5.33 46.78 5.26 46.45 5.12C46.13 4.99 45.84 4.79 45.6 4.55C45.36 4.31 45.17 4.02 45.03 3.7C44.89 3.37 44.82 3.02 44.82 2.66C44.82 2.31 44.89 1.95 45.03 1.62C45.17 1.31 45.36 1.02 45.6 0.78C45.85 0.53 46.13 0.34 46.45 0.2C46.78 0.06 47.13 -0.01 47.49 0L54.24 0L54.24 1.13L47.49 1.13C47.31 1.13 47.12 1.16 46.95 1.22C46.78 1.29 46.63 1.38 46.49 1.5C46.36 1.62 46.24 1.75 46.15 1.9ZM22.67 3.1C22.47 3.18 22.26 3.23 22.04 3.23L23.99 5.33L22.46 5.33L20.51 3.23L15.36 3.23L15.36 5.34L14.24 5.34L14.24 0L22.04 0C22.26 -0.01 22.47 0.04 22.67 0.12C22.86 0.2 23.03 0.32 23.18 0.47C23.33 0.61 23.44 0.79 23.52 0.98C23.61 1.17 23.65 1.38 23.65 1.59L23.65 1.61C23.65 2.03 23.48 2.45 23.18 2.75C23.04 2.9 22.86 3.02 22.67 3.1ZM83.2 3.1C83.01 3.18 82.79 3.23 82.57 3.23L84.52 5.33L82.99 5.33L81.04 3.23L75.89 3.23L75.89 5.34L74.77 5.34L74.77 0L82.57 0C82.79 -0.01 83.01 0.04 83.2 0.12C83.59 0.29 83.9 0.6 84.06 0.98C84.14 1.18 84.19 1.39 84.19 1.61L84.19 1.61L84.19 1.63C84.19 1.84 84.14 2.05 84.06 2.24C83.98 2.43 83.86 2.61 83.71 2.75C83.57 2.9 83.39 3.02 83.2 3.1ZM67.2 4.21L71.26 4.21C71.47 4.22 71.68 4.17 71.87 4.09C72.05 4.01 72.21 3.9 72.35 3.76C72.49 3.62 72.6 3.45 72.69 3.27C72.77 3.08 72.81 2.88 72.81 2.68L72.81 2.67L72.81 2.66C72.81 2.46 72.77 2.26 72.69 2.07C72.61 1.89 72.49 1.72 72.35 1.57C72.21 1.43 72.04 1.32 71.86 1.24C71.67 1.15 71.47 1.11 71.26 1.11L67.2 1.11C66.99 1.11 66.79 1.15 66.6 1.24C66.41 1.32 66.24 1.43 66.1 1.57C65.96 1.71 65.85 1.88 65.77 2.06C65.69 2.25 65.65 2.45 65.65 2.66L65.65 2.66L65.65 2.67C65.65 2.88 65.69 3.08 65.77 3.26C65.85 3.45 65.96 3.61 66.1 3.76C66.24 3.9 66.41 4.01 66.6 4.09C66.79 4.17 66.99 4.21 67.2 4.21ZM31.2 1.13L27.14 1.13C26.94 1.12 26.74 1.16 26.55 1.24C26.37 1.32 26.2 1.44 26.06 1.58C25.92 1.72 25.8 1.89 25.72 2.07C25.64 2.26 25.59 2.46 25.59 2.67L32.75 2.66L32.75 2.66C32.75 2.46 32.71 2.26 32.63 2.07C32.47 1.7 32.17 1.4 31.8 1.25C31.61 1.17 31.41 1.12 31.2 1.13ZM22.03 1.13L15.36 1.13L15.36 2.11L22.03 2.11C22.09 2.11 22.16 2.1 22.21 2.07C22.28 2.05 22.33 2.01 22.38 1.96C22.42 1.92 22.46 1.86 22.49 1.8C22.51 1.75 22.52 1.68 22.52 1.62C22.52 1.56 22.51 1.49 22.49 1.44C22.46 1.38 22.42 1.32 22.37 1.28C22.33 1.23 22.27 1.19 22.21 1.16C22.16 1.14 22.09 1.13 22.03 1.13ZM82.57 1.13L75.89 1.13L75.89 2.11L82.57 2.11C82.64 2.11 82.7 2.1 82.76 2.07C82.82 2.05 82.87 2.01 82.92 1.96C82.97 1.92 83 1.86 83.03 1.8C83.06 1.74 83.07 1.68 83.07 1.62C83.07 1.55 83.05 1.49 83.03 1.44C83 1.38 82.96 1.32 82.92 1.28C82.87 1.23 82.82 1.19 82.76 1.16C82.7 1.14 82.64 1.13 82.57 1.13ZM24.2 8.94L24.2 10.77L15.01 10.77L15.01 19.99L13.18 19.99L13.18 10.77L4 10.77L4 8.94L24.2 8.94ZM94.98 8.94L94.98 19.99L93.18 19.99L93.18 12.33L85.13 18.57L77.11 12.34L77.11 19.99L75.3 19.99L75.3 8.94L85.13 16.28L94.98 8.94ZM69.73 10.56C70.23 11.06 70.62 11.65 70.9 12.3C71.19 12.97 71.34 13.69 71.34 14.42L71.34 14.44L71.34 20L69.52 20L69.52 16.61L53.24 16.61L53.24 20L51.43 20L51.43 14.45C51.42 14.44 51.42 14.43 51.42 14.41C51.42 13.69 51.57 12.97 51.86 12.31C52.42 10.99 53.47 9.94 54.79 9.38C55.47 9.09 56.2 8.94 56.94 8.94L65.82 8.94C66.56 8.94 67.3 9.09 67.98 9.38C68.63 9.65 69.23 10.06 69.73 10.56ZM29.81 12.63C29.64 12.92 29.52 13.23 29.43 13.55L47.47 13.55L47.47 15.37L29.43 15.37C29.51 15.69 29.64 16 29.81 16.28C30.24 17.04 30.91 17.62 31.72 17.94C32.14 18.09 32.58 18.17 33.02 18.17L47.47 18.17L47.47 19.99L33.02 19.99C32.28 20 31.55 19.85 30.87 19.56C30.21 19.28 29.62 18.88 29.11 18.38C28.61 17.87 28.21 17.27 27.93 16.62C27.64 15.94 27.49 15.21 27.49 14.47C27.49 13.73 27.64 13 27.93 12.32C28.49 10.99 29.54 9.94 30.87 9.38C31.55 9.09 32.28 8.94 33.02 8.94L47.47 8.94L47.47 10.75L33.02 10.75C32.58 10.75 32.14 10.83 31.72 10.99C31.32 11.14 30.95 11.36 30.62 11.65C30.3 11.93 30.02 12.26 29.81 12.63ZM65.82 10.75L56.94 10.75C56.44 10.75 55.95 10.85 55.5 11.04C54.62 11.43 53.91 12.14 53.53 13.02C53.34 13.47 53.24 13.95 53.24 14.44L53.24 14.44L53.24 14.79L69.52 14.79L69.52 14.44C69.52 14.44 69.52 14.43 69.52 14.42C69.52 13.94 69.42 13.46 69.24 13.02C69.05 12.58 68.78 12.18 68.45 11.84C68.11 11.5 67.71 11.23 67.26 11.04C66.81 10.85 66.32 10.75 65.82 10.75Z" fill="#575757" fill-opacity="1.000000" fill-rule="evenodd"/>
	</g>
</svg>
