<svg style="display: none">
    <symbol id="double-left-array" xmlns="http://www.w3.org/2000/svg"  viewBox="0 0 14 13" fill="inherit">
  <path d="M2.71401 6.49988L7.80231 1.62545C8.16797 1.275 8.16797 0.706895 7.80231 0.356587C7.43665 0.00613754 6.84368 0.00613754 6.47787 0.356587L0.727266 5.86567C0.544436 6.04091 0.453125 6.27034 0.453125 6.49988C0.453125 6.72951 0.544614 6.9591 0.727266 7.13426L6.47787 12.6433C6.84368 12.9939 7.43668 12.9939 7.80231 12.6433C8.16797 12.293 8.16797 11.7248 7.80231 11.3745L2.71401 6.49988ZM13.632 11.3745C13.9977 11.7248 13.9977 12.293 13.632 12.6433C13.2663 12.9939 12.6735 12.9939 12.3075 12.6433L6.55693 7.13428C6.3741 6.95913 6.28293 6.72953 6.28293 6.49991C6.28293 6.27037 6.37427 6.04077 6.55693 5.8657L12.3075 0.356587C12.6735 0.00613754 13.2663 0.00613754 13.632 0.356587C13.9977 0.706895 13.9977 1.27498 13.632 1.62545L8.54358 6.49988L13.632 11.3745Z" fill="inherit" fill-opacity="inherit"/>
</symbol>
<symbol id="left-array" xmlns="http://www.w3.org/2000/svg"  viewBox="0 0 9 13" fill="inherit">
  <path d="M0.932837 7.13428L6.73159 12.6433C7.10046 12.9939 7.69852 12.9939 8.06721 12.6433C8.43593 12.293 8.43593 11.7248 8.06721 11.3745L2.93621 6.49991L8.06706 1.62545C8.43578 1.275 8.43578 0.706895 8.06706 0.356587C7.69834 0.00613754 7.10031 0.00613754 6.73144 0.356587L0.932687 5.86567C0.748326 6.04091 0.65625 6.27034 0.65625 6.49988C0.65625 6.72953 0.748506 6.95913 0.932837 7.13428Z" fill="inherit" fill-opacity="inherit"/>
</symbol>
<symbol id="right-array" xmlns="http://www.w3.org/2000/svg" viewBox="0 0 9 13" fill="inherit">
  <path d="M8.06716 7.13428L2.26841 12.6433C1.89954 12.9939 1.30148 12.9939 0.932791 12.6433C0.56407 12.293 0.56407 11.7248 0.932791 11.3745L6.06379 6.49991L0.93294 1.62545C0.564219 1.275 0.564219 0.706895 0.93294 0.356587C1.30166 0.00613754 1.89969 0.00613754 2.26856 0.356587L8.06731 5.86567C8.25167 6.04091 8.34375 6.27034 8.34375 6.49988C8.34375 6.72953 8.25149 6.95913 8.06716 7.13428Z" fill="inherit" fill-opacity="inherit"/>
</symbol>
<symbol id="double-right-array" xmlns="http://www.w3.org/2000/svg" viewBox="0 0 14 13" fill="inherit">
  <path d="M11.286 6.49988L6.19769 1.62545C5.83203 1.275 5.83203 0.706895 6.19769 0.356587C6.56335 0.00613754 7.15632 0.00613754 7.52213 0.356587L13.2727 5.86567C13.4556 6.04091 13.5469 6.27034 13.5469 6.49988C13.5469 6.72951 13.4554 6.9591 13.2727 7.13426L7.52213 12.6433C7.15632 12.9939 6.56332 12.9939 6.19769 12.6433C5.83203 12.293 5.83203 11.7248 6.19769 11.3745L11.286 6.49988ZM0.367995 11.3745C0.00233503 11.7248 0.00233503 12.293 0.367995 12.6433C0.733655 12.9939 1.32645 12.9939 1.69247 12.6433L7.44307 7.13428C7.6259 6.95913 7.71707 6.72953 7.71707 6.49991C7.71707 6.27037 7.62573 6.04077 7.44307 5.8657L1.69247 0.356587C1.32648 0.00613754 0.733655 0.00613754 0.367995 0.356587C0.00233503 0.706895 0.00233503 1.27498 0.367995 1.62545L5.45642 6.49988L0.367995 11.3745Z" fill="inherit" fill-opacity="inherit"/>
</symbol>
<symbol id="cross" fill="inherit" xmlns="http://www.w3.org/2000/svg" viewBox="0 0 9 9" >
  <path
                fillRule="evenodd"
                clipRule="evenodd"
                d="M2.36474 1.21893C2.07355 0.924339 1.60144 0.924339 1.31025 1.21893C1.01906 1.51351 1.01906 1.99113 1.31025 2.28572L3.94492 4.95114L1.21644 7.71146C0.92525 8.00604 0.92525 8.48366 1.21644 8.77825C1.50763 9.07284 1.97974 9.07284 2.27093 8.77825L4.99941 6.01793L7.72779 8.77815C8.01898 9.07274 8.49109 9.07274 8.78228 8.77815C9.07347 8.48356 9.07347 8.00594 8.78228 7.71136L6.0539 4.95114L8.68848 2.28582C8.97966 1.99124 8.97967 1.51361 8.68848 1.21903C8.39729 0.92444 7.92517 0.924441 7.63399 1.21903L4.99941 3.88434L2.36474 1.21893Z"
                fill="inherit"
              />
</symbol>
<symbol fill-opacity="inherit" viewBox="0 0 10 6" id="arrow-top" fill="inherit" xmlns="http://www.w3.org/2000/svg">
  <path
                d="M9.67861 1.8337L5.77064 5.68539C5.34503 6.10487 4.65497 6.10487 4.22936 5.68539L0.321394 1.8337C-0.365172 1.15702 0.121082 -8.3659e-08 1.09203 0L8.90797 6.73452e-07C9.87892 7.57113e-07 10.3652 1.15702 9.67861 1.8337Z"
                fill="inherit"
                
              />
</symbol>
<symbol id="frame" xmlns="http://www.w3.org/2000/svg" viewBox="0 0 20 20" fill="inherit">
  <path d="M10 5.45455C7.49091 5.45455 5.45455 7.49091 5.45455 10C5.45455 12.5091 7.49091 14.5455 10 14.5455C12.5091 14.5455 14.5455 12.5091 14.5455 10C14.5455 7.49091 12.5091 5.45455 10 5.45455ZM0.909091 10.9091H2.72727C3.22727 10.9091 3.63636 10.5 3.63636 10C3.63636 9.5 3.22727 9.09091 2.72727 9.09091H0.909091C0.409091 9.09091 0 9.5 0 10C0 10.5 0.409091 10.9091 0.909091 10.9091ZM17.2727 10.9091H19.0909C19.5909 10.9091 20 10.5 20 10C20 9.5 19.5909 9.09091 19.0909 9.09091H17.2727C16.7727 9.09091 16.3636 9.5 16.3636 10C16.3636 10.5 16.7727 10.9091 17.2727 10.9091ZM9.09091 0.909091V2.72727C9.09091 3.22727 9.5 3.63636 10 3.63636C10.5 3.63636 10.9091 3.22727 10.9091 2.72727V0.909091C10.9091 0.409091 10.5 0 10 0C9.5 0 9.09091 0.409091 9.09091 0.909091ZM9.09091 17.2727V19.0909C9.09091 19.5909 9.5 20 10 20C10.5 20 10.9091 19.5909 10.9091 19.0909V17.2727C10.9091 16.7727 10.5 16.3636 10 16.3636C9.5 16.3636 9.09091 16.7727 9.09091 17.2727ZM4.53636 3.25455C4.18182 2.9 3.6 2.9 3.25455 3.25455C2.9 3.60909 2.9 4.19091 3.25455 4.53636L4.21818 5.5C4.57273 5.85455 5.15455 5.85455 5.5 5.5C5.84546 5.14545 5.85455 4.56364 5.5 4.21818L4.53636 3.25455ZM15.7818 14.5C15.4273 14.1455 14.8455 14.1455 14.5 14.5C14.1455 14.8545 14.1455 15.4364 14.5 15.7818L15.4636 16.7455C15.8182 17.1 16.4 17.1 16.7455 16.7455C17.1 16.3909 17.1 15.8091 16.7455 15.4636L15.7818 14.5ZM16.7455 4.53636C17.1 4.18182 17.1 3.6 16.7455 3.25455C16.3909 2.9 15.8091 2.9 15.4636 3.25455L14.5 4.21818C14.1455 4.57273 14.1455 5.15455 14.5 5.5C14.8545 5.84546 15.4364 5.85455 15.7818 5.5L16.7455 4.53636ZM5.5 15.7818C5.85455 15.4273 5.85455 14.8455 5.5 14.5C5.14545 14.1455 4.56364 14.1455 4.21818 14.5L3.25455 15.4636C2.9 15.8182 2.9 16.4 3.25455 16.7455C3.60909 17.0909 4.19091 17.1 4.53636 16.7455L5.5 15.7818Z" fill="inherit"/>
</symbol>
<symbol
    xmlns="http://www.w3.org/2000/svg"
    width="68"
    height="68"
    viewBox="0 0 68 68"
    fill="inherit"
    id="Logo"
  >
    <path
      d="M34 66C51.6731 66 66 51.6731 66 34C66 16.3269 51.6731 2 34 2C16.3269 2 2 16.3269 2 34C2 51.6731 16.3269 66 34 66Z"
      stroke="inherit"
      strokeWidth="2.5"
    />
    <path
      d="M18.9773 35.3264H17.3555"
      stroke="inherit"
      strokeWidth="2.5"
      strokeMiterlimit="10"
      strokeLinecap="round"
      strokeLinejoin="round"
    />
    <path
      d="M22.3003 27.8221H13V41.7101"
      stroke="inherit"
      strokeWidth="2.5"
      strokeMiterlimit="10"
      strokeLinecap="round"
      strokeLinejoin="round"
    />
    <path
      d="M51.1641 32.3343V41.7096"
      stroke="inherit"
      strokeWidth="2.5"
      strokeMiterlimit="10"
      strokeLinecap="round"
      strokeLinejoin="round"
    />
    <path
      d="M55.9995 27.8221H46.6992"
      stroke="inherit"
      strokeWidth="2.5"
      strokeMiterlimit="10"
      strokeLinecap="round"
      strokeLinejoin="round"
    />
    <path
      d="M31.5273 41.9594L26.1514 27"
      stroke="inherit"
      strokeWidth="2.5"
      strokeMiterlimit="10"
      strokeLinecap="round"
      strokeLinejoin="round"
    />
    <path
      d="M43.0503 27L37.6743 41.9594L34.5107 33.5358"
      stroke="inherit"
      strokeWidth="2.5"
      strokeMiterlimit="10"
      strokeLinecap="round"
      strokeLinejoin="round"
    />
  </symbol>
</svg>